<svg width="535" height="456" viewBox="0 0 535 456" fill="none" xmlns="http://www.w3.org/2000/svg">
<g opacity="0.1">
<g clip-path="url(#clip0_1_869)">
<path d="M349.917 62.4963C349.868 42.1434 343.848 22.2524 332.603 5.28783C321.453 -11.6053 305.53 -24.7999 286.859 -32.6172C274.003 -37.7674 260.239 -40.2706 246.392 -39.9768C232.546 -39.6831 218.901 -36.5986 206.274 -30.9078C193.647 -25.2171 182.298 -17.0371 172.907 -6.85765C163.516 3.32184 156.275 15.2916 151.618 28.335C146.32 42.6393 144.359 57.965 145.886 73.1424C147.291 88.2183 152.005 102.799 159.691 115.844C167.551 128.832 178.127 139.967 190.693 148.484C204.704 157.773 220.765 163.515 237.489 165.214C254.215 166.867 271.091 164.376 286.625 157.961C299.129 152.539 310.366 144.57 319.617 134.563C329.178 125.148 336.779 113.932 341.98 101.562C347.181 89.1925 349.879 75.9148 349.917 62.4963Z" fill="#5152FB"/>
<path d="M494.993 62.5098C456.269 62.5098 408.771 97.607 389.702 140.66C389.702 140.66 345.596 240.336 247.792 240.336C214.473 240.299 182.283 228.254 157.124 206.408C136.058 188.206 118.904 165.918 106.701 140.894C87.7487 97.9579 40.1335 62.8607 1.40955 62.8607C-37.3144 62.8607 -50.8853 95.8521 -27.4872 136.682L205.792 543.108C229.19 583.82 267.329 583.82 290.494 543.108L523.305 136.916C546.586 95.8521 534.068 62.5098 494.993 62.5098Z" fill="#5152FB"/>
</g>
</g>
<defs>
<clipPath id="clip0_1_869">
<path d="M0 30C0 13.4315 13.4315 0 30 0H535V456H30C13.4314 456 0 442.569 0 426V30Z" fill="white"/>
</clipPath>
</defs>
</svg>
